<svg width="40" height="40" viewBox="0 0 40 40" fill="none" xmlns="http://www.w3.org/2000/svg">
<path d="M0 18.6997C0.0974896 17.9783 0.18523 17.2569 0.302218 16.5452C0.896905 13.0453 2.33975 9.92564 4.61126 7.20568C7.66269 3.55957 11.5428 1.28806 16.2028 0.371656C25.2888 -1.4319 34.5991 3.46208 38.3037 11.9632C39.571 14.8586 40.117 17.8905 39.9708 21.0395C39.5613 29.9988 32.9807 37.7784 24.2262 39.5332C18.0453 40.7714 12.3812 39.5235 7.43846 35.5459C3.55837 32.4263 1.18937 28.3707 0.311967 23.4572C0.18523 22.765 0.107239 22.0631 0 21.3514C0 20.474 0 19.5869 0 18.6997ZM7.57495 33.6351C14.1068 39.8647 25.708 40.5374 33.1465 32.9332C40.6629 25.251 39.5808 13.8252 33.5852 7.62489C24.9281 16.2917 16.2613 24.9488 7.57495 33.6351ZM6.36607 32.436C15.0524 23.7497 23.7192 15.0828 32.3861 6.42576C26.176 0.449647 14.7502 -0.661735 7.03875 6.89371C-0.467951 14.2542 0.0682432 25.7872 6.36607 32.436ZM18.6985 27.7857C18.4255 27.6005 18.1136 27.659 17.8699 27.8832C17.4701 28.2537 17.0802 28.6437 16.7097 29.0336C16.388 29.3748 16.3783 29.8525 16.6805 30.1547C17.0022 30.4765 17.4506 30.4765 17.8211 30.1255C18.1916 29.7745 18.5523 29.4236 18.8935 29.0434C19.03 28.8874 19.0982 28.6729 19.2445 28.3999C19.0592 28.1757 18.913 27.932 18.6985 27.7857ZM32.6298 11.8852C33.1367 11.4075 33.6534 10.9298 34.1116 10.4033C34.3359 10.1401 34.2091 9.73066 33.9459 9.48694C33.6827 9.25296 33.2732 9.18472 33.0197 9.41869C32.542 9.84765 32.0643 10.3059 31.6646 10.8128C31.5379 10.9688 31.5574 11.349 31.6549 11.5635C31.7524 11.7682 32.0448 11.8949 32.2106 12.0217C32.4153 11.9534 32.5518 11.9534 32.6298 11.8852ZM28.9154 19.0117C29.3444 18.612 29.7636 18.2123 30.1535 17.7736C30.4265 17.4713 30.3778 17.0229 30.1146 16.7499C29.8416 16.4672 29.4029 16.4185 29.0909 16.6914C28.6425 17.0911 28.233 17.5201 27.8235 17.949C27.6091 18.1733 27.5701 18.4852 27.7456 18.7387C27.9015 18.9434 28.1453 19.0897 28.3402 19.2554C28.6035 19.1482 28.7984 19.1189 28.9154 19.0117ZM31.031 12.1289C30.758 11.9437 30.4265 11.9924 30.173 12.2264C29.7928 12.5774 29.4224 12.9478 29.0617 13.328C28.701 13.7082 28.6912 14.1469 29.0032 14.4687C29.3249 14.8001 29.7636 14.8001 30.1438 14.4394C30.5143 14.0884 30.875 13.7375 31.2162 13.3573C31.3527 13.211 31.4112 13.0063 31.5574 12.7528C31.3819 12.5384 31.2454 12.2751 31.031 12.1289ZM23.5145 22.2776C23.066 22.687 22.6273 23.116 22.2179 23.5644C21.9547 23.8569 22.0132 24.2761 22.2861 24.5588C22.5591 24.8318 22.9783 24.9098 23.2708 24.6563C23.7387 24.2469 24.1677 23.7984 24.5869 23.3402C24.7916 23.116 24.8209 22.7943 24.6356 22.5506C24.4894 22.3556 24.2457 22.2191 24.0604 22.0729C23.8167 22.1508 23.6217 22.1703 23.5145 22.2776ZM22.6078 20.5228C22.3349 20.3278 22.0229 20.4058 21.7792 20.6203C21.399 20.9712 21.0285 21.3417 20.6678 21.7121C20.3071 22.0826 20.2876 22.5311 20.5996 22.8528C20.9115 23.1842 21.399 23.1647 21.7792 22.804C22.1204 22.4823 22.4616 22.1606 22.7638 21.8096C22.9101 21.6439 22.9881 21.4197 23.144 21.1467C22.9588 20.9225 22.8223 20.6787 22.6078 20.5228ZM19.8001 23.3207C19.5272 23.1355 19.2152 23.2037 18.9715 23.428C18.5815 23.7887 18.2013 24.1591 17.8309 24.5491C17.4896 24.9098 17.4896 25.3388 17.7919 25.6605C18.0843 25.9627 18.562 25.9822 18.913 25.6605C19.2932 25.3095 19.6637 24.939 20.0146 24.5588C20.1414 24.4126 20.1999 24.2079 20.3266 23.9349C20.1609 23.7204 20.0146 23.4767 19.8001 23.3207ZM32.6785 13.8057C32.4056 13.6108 32.0936 13.6985 31.8499 13.913C31.4502 14.2834 31.0602 14.6636 30.6897 15.0633C30.3778 15.4046 30.3875 15.853 30.68 16.1455C30.9822 16.4477 31.4502 16.4574 31.8011 16.1357C32.1716 15.7945 32.5323 15.4338 32.8735 15.0633C33.01 14.9074 33.0782 14.6929 33.2245 14.4199C33.0295 14.1957 32.893 13.952 32.6785 13.8057ZM15.8908 30.6032C15.6081 30.3985 15.2864 30.496 15.0329 30.7202C14.6624 31.0614 14.3017 31.4221 13.9508 31.7828C13.5803 32.1728 13.5706 32.6407 13.9118 32.9527C14.2237 33.2549 14.6917 33.2257 15.0622 32.8747C15.4034 32.553 15.7348 32.2313 16.0468 31.8803C16.193 31.7146 16.271 31.4904 16.427 31.2174C16.2418 31.0029 16.1053 30.7494 15.8908 30.6032ZM13.1611 33.3329C12.8784 33.1282 12.5567 33.2257 12.3032 33.4596C11.923 33.8106 11.5525 34.1811 11.1918 34.5515C10.8408 34.922 10.8506 35.3899 11.1723 35.7019C11.4843 35.9944 11.9425 35.9846 12.2934 35.6532C12.6542 35.3119 13.0051 34.9707 13.3366 34.6003C13.4731 34.4443 13.5413 34.2298 13.6875 33.9568C13.5121 33.7326 13.3658 33.4791 13.1611 33.3329ZM26.3417 19.4504C25.8835 19.8696 25.435 20.2985 25.0158 20.7665C24.7526 21.059 24.8209 21.4879 25.0938 21.7511C25.3668 22.0241 25.786 22.0826 26.0882 21.8194C26.5464 21.4197 26.9656 20.981 27.3848 20.5325C27.5896 20.3083 27.6091 19.9866 27.4336 19.7331C27.2874 19.5284 27.0436 19.4016 26.8681 19.2554C26.6244 19.3431 26.4489 19.3529 26.3417 19.4504ZM16.232 26.1869C15.7836 26.6061 15.3449 27.0253 14.9354 27.4835C14.6819 27.7565 14.7404 28.1757 14.9842 28.4487C15.2376 28.7314 15.6666 28.8191 15.9688 28.5657C16.4465 28.1465 16.9047 27.698 17.3044 27.2106C17.4311 27.0448 17.4311 26.6744 17.3337 26.4599C17.2459 26.2454 16.9632 26.1284 16.778 25.9724C16.5342 26.0602 16.349 26.0894 16.232 26.1869ZM34.3359 13.5425C34.8233 13.0843 35.3107 12.6164 35.7592 12.1192C35.9834 11.8657 35.8762 11.4367 35.6325 11.2028C35.3692 10.9493 34.9793 10.8713 34.7063 11.1053C34.2189 11.5342 33.7509 11.9827 33.3415 12.4799C33.2147 12.6359 33.2245 13.0161 33.322 13.2305C33.4194 13.4353 33.7022 13.562 33.8679 13.6887C34.0921 13.6205 34.2481 13.6205 34.3359 13.5425ZM26.4099 17.4226C26.7414 17.5981 27.0534 17.5201 27.3069 17.2764C27.6871 16.9254 28.0575 16.5549 28.4085 16.1747C28.7399 15.814 28.7302 15.3656 28.4182 15.0536C28.1063 14.7514 27.6481 14.7611 27.2971 15.0828C26.9266 15.4241 26.5659 15.7848 26.2247 16.165C26.098 16.3015 26.0395 16.4964 25.9907 16.5744C25.981 17.0131 26.1175 17.2666 26.4099 17.4226ZM11.494 31.6658C11.2211 31.4806 10.8896 31.5293 10.6361 31.7633C10.2559 32.1143 9.88545 32.4847 9.52474 32.865C9.17378 33.2354 9.17378 33.7034 9.48574 34.0153C9.80746 34.337 10.2559 34.3176 10.6361 33.9568C10.9871 33.6254 11.3283 33.2939 11.65 32.9332C11.7865 32.7772 11.8645 32.5627 12.0205 32.2898C11.845 32.0753 11.7085 31.8121 11.494 31.6658ZM19.7027 27.4835C19.9854 27.6883 20.3168 27.6005 20.5606 27.3763C20.9603 27.0058 21.3502 26.6256 21.7207 26.2259C22.0327 25.8749 22.0132 25.4362 21.7012 25.1438C21.399 24.8513 20.9505 24.8416 20.6191 25.1535C20.2389 25.5045 19.8684 25.8749 19.5174 26.2552C19.3907 26.4014 19.3224 26.6061 19.186 26.8693C19.3614 27.0741 19.4979 27.3275 19.7027 27.4835ZM14.214 28.9361C13.9313 28.7411 13.5998 28.8094 13.3561 29.0434C12.9954 29.3748 12.6444 29.7355 12.3032 30.0865C11.923 30.4862 11.8937 30.9249 12.2252 31.2564C12.5567 31.5976 13.0051 31.5781 13.3951 31.1979C13.7265 30.8859 14.058 30.5642 14.3602 30.2327C14.5065 30.067 14.5942 29.8428 14.7599 29.5698C14.565 29.3456 14.4285 29.0921 14.214 28.9361ZM23.6315 20.2108C23.9337 20.4155 24.2652 20.2985 24.5186 20.0646C24.8794 19.7331 25.2303 19.3724 25.5715 19.0214C25.9322 18.6412 25.942 18.1928 25.6105 17.871C25.2986 17.5591 24.8306 17.5688 24.4602 17.9198C24.1092 18.2513 23.768 18.5827 23.4463 18.9434C23.3098 19.0994 23.2318 19.3139 23.0855 19.5771C23.2805 19.8111 23.417 20.0646 23.6315 20.2108ZM16.3393 19.8501C16.076 19.6649 15.7543 19.7136 15.5106 19.9378C15.1109 20.3083 14.7209 20.6885 14.3407 21.0785C13.9995 21.4392 13.9995 21.8779 14.3115 22.1898C14.6332 22.5213 15.0816 22.5213 15.4521 22.1606C15.8128 21.8194 16.1638 21.4782 16.4952 21.1077C16.6317 20.9517 16.7097 20.7372 16.856 20.4643C16.6902 20.2595 16.5537 20.0061 16.3393 19.8501ZM10.7531 25.4362C10.4704 25.2413 10.1487 25.2998 9.8952 25.5337C9.51499 25.8847 9.14453 26.2552 8.78382 26.6354C8.43285 27.0058 8.41336 27.464 8.71557 27.7857C9.03729 28.1172 9.51499 28.0977 9.8952 27.737C10.2364 27.4153 10.5679 27.0838 10.8798 26.7426C11.0261 26.5769 11.1138 26.3624 11.2796 26.0894C11.0943 25.8457 10.9676 25.5825 10.7531 25.4362ZM27.5311 8.64853C27.2581 8.45355 26.9461 8.52179 26.7024 8.73627C26.3027 9.10673 25.9127 9.48694 25.5325 9.88665C25.2011 10.2279 25.2108 10.7056 25.513 11.0078C25.825 11.3295 26.293 11.3197 26.6634 10.9688C27.0144 10.6373 27.3556 10.3059 27.6773 9.94514C27.8235 9.77941 27.9113 9.56493 28.0673 9.28221C27.882 9.04823 27.7358 8.80451 27.5311 8.64853ZM7.88691 26.2747C8.41336 25.7775 8.9593 25.29 9.4175 24.7441C9.64173 24.4808 9.49549 24.1201 9.23227 23.8667C8.98855 23.6327 8.55959 23.5839 8.29637 23.8082C7.82842 24.2176 7.38972 24.6661 6.97051 25.1243C6.75603 25.3485 6.73653 25.6702 6.93151 25.9237C7.0875 26.1284 7.32147 26.2552 7.48721 26.3819C7.69193 26.3234 7.81867 26.3331 7.88691 26.2747ZM6.31733 26.5086C6.0931 26.4209 5.72264 26.4501 5.53741 26.5866C5.10846 26.9083 4.72825 27.3178 4.35779 27.7078C3.99708 28.088 3.99708 28.5169 4.32854 28.8484C4.65026 29.1701 5.09871 29.1603 5.46917 28.7996C5.82013 28.4682 6.16135 28.1367 6.48306 27.776C6.6293 27.6103 6.71704 27.386 6.86327 27.1131C6.66829 26.8986 6.53181 26.5964 6.31733 26.5086ZM25.8348 6.98145C25.6105 6.89371 25.2401 6.93271 25.0548 7.06919C24.6356 7.37141 24.2847 7.77112 23.924 8.14158C23.534 8.54129 23.5145 8.97999 23.846 9.31146C24.1774 9.65267 24.6161 9.63317 25.0256 9.25296C25.3668 8.93125 25.708 8.60953 26.02 8.25857C26.1662 8.09284 26.254 7.86861 26.4002 7.59564C26.1955 7.36166 26.059 7.06919 25.8348 6.98145ZM14.6722 18.1928C14.448 18.105 14.0775 18.105 13.8923 18.2415C13.4633 18.5535 13.1026 18.9532 12.7321 19.3334C12.3519 19.7234 12.3227 20.1718 12.6542 20.5033C12.9661 20.825 13.4438 20.8152 13.8338 20.4448C14.175 20.1231 14.5162 19.8013 14.8184 19.4504C14.9647 19.2846 15.0427 19.0604 15.1889 18.7874C15.0037 18.5632 14.8867 18.2708 14.6722 18.1928ZM28.5742 4.2225C28.3207 4.05676 28.0088 4.09576 27.7748 4.31024C27.3946 4.6612 27.0241 5.02191 26.6537 5.39237C26.2637 5.79208 26.2442 6.23078 26.5757 6.56225C26.9071 6.89371 27.3458 6.88396 27.7553 6.49401C28.0965 6.17229 28.4377 5.85057 28.7497 5.49961C28.8959 5.33388 28.9739 5.10965 29.1299 4.83668C28.9349 4.6222 28.7887 4.36873 28.5742 4.2225ZM29.2469 8.33656C29.6953 7.90761 30.1535 7.47865 30.563 7.0107C30.8067 6.72798 30.7482 6.30877 30.4948 6.0553C30.2315 5.78233 29.8026 5.70434 29.5101 5.96756C29.0422 6.37702 28.5937 6.81572 28.2038 7.29342C28.0673 7.45915 28.0575 7.83936 28.155 8.04409C28.2525 8.25857 28.545 8.39505 28.7399 8.55104C28.9642 8.45355 29.1397 8.43405 29.2469 8.33656ZM6.91202 30.6422C7.39946 30.1742 7.89666 29.716 8.32562 29.2091C8.55959 28.9361 8.45235 28.5852 8.20863 28.3219C7.9649 28.0587 7.55545 27.971 7.28248 28.1952C6.78528 28.6242 6.29783 29.0921 5.88837 29.5991C5.76164 29.755 5.78114 30.145 5.88837 30.3497C5.98586 30.5544 6.27833 30.6714 6.44407 30.7982C6.67804 30.7299 6.83402 30.7202 6.91202 30.6422ZM24.7331 11.4465C24.4699 11.2612 24.1482 11.31 23.9045 11.5342C23.5145 11.8949 23.1343 12.2654 22.7638 12.6554C22.4129 13.0356 22.4129 13.4938 22.7346 13.8057C23.0466 14.1079 23.5145 14.0982 23.885 13.7472C24.2359 13.4158 24.5771 13.0843 24.8989 12.7236C25.0353 12.5676 25.1133 12.3531 25.2596 12.0899C25.0743 11.8559 24.9476 11.6025 24.7331 11.4465ZM19.147 17.0521C18.8837 16.8669 18.562 16.9059 18.3183 17.1301C17.9283 17.4908 17.5384 17.8613 17.1777 18.2415C16.8267 18.612 16.8267 19.0799 17.1387 19.3919C17.4604 19.7136 17.8991 19.7039 18.2891 19.3431C18.64 19.0117 18.9812 18.6802 19.3029 18.3195C19.4394 18.1635 19.5174 17.949 19.6637 17.6761C19.4882 17.4616 19.3614 17.1984 19.147 17.0521ZM23.0563 9.77941C22.7833 9.57468 22.4519 9.64292 22.1984 9.8769C21.8279 10.2181 21.4672 10.5788 21.1163 10.9395C20.7458 11.3295 20.7165 11.7877 21.048 12.1192C21.3697 12.4409 21.8377 12.4214 22.2276 12.0509C22.5591 11.7389 22.8808 11.4172 23.183 11.0858C23.3293 10.92 23.4268 10.6958 23.5827 10.4326C23.4073 10.1986 23.2708 9.93539 23.0563 9.77941ZM18.4743 15.0536C18.7765 15.2486 19.108 15.1511 19.3614 14.9074C19.7222 14.5661 20.0731 14.2152 20.4143 13.8642C20.775 13.484 20.7945 13.0453 20.4728 12.7138C20.1414 12.3726 19.7027 12.3824 19.3029 12.7626C18.9617 13.0843 18.6205 13.406 18.3086 13.757C18.1623 13.9227 18.0843 14.1469 17.9283 14.4199C18.1233 14.6539 18.2598 14.9074 18.4743 15.0536ZM16.4465 17.7833C16.895 17.3738 17.3337 16.9449 17.7334 16.4964C17.9966 16.1942 17.9283 15.775 17.6651 15.5118C17.3922 15.2388 16.9827 15.1706 16.6805 15.4436C16.2223 15.8433 15.7738 16.2625 15.4034 16.7402C15.2669 16.9156 15.2571 17.2959 15.3449 17.5201C15.4229 17.7248 15.7153 17.8515 15.9006 18.0075C16.1443 17.91 16.3295 17.8808 16.4465 17.7833ZM11.1041 21.0102C10.6459 21.4489 10.1779 21.8779 9.75871 22.3556C9.51499 22.6383 9.59298 23.0477 9.8562 23.311C10.1194 23.5742 10.5094 23.6522 10.8116 23.3987C11.2893 22.9893 11.7573 22.5408 12.1472 22.0534C12.2739 21.8876 12.2739 21.5074 12.1765 21.3027C12.0692 21.0882 11.7767 20.9615 11.5818 20.8152C11.3575 20.903 11.1918 20.9225 11.1041 21.0102ZM11.7475 25.1243C12.0302 25.3095 12.3617 25.2413 12.6054 25.0073C12.9759 24.6661 13.3366 24.3054 13.6875 23.9447C14.0483 23.5644 14.0678 23.1257 13.7558 22.7943C13.4243 22.4531 12.9856 22.4628 12.5859 22.843C12.2447 23.1647 11.9132 23.4865 11.6013 23.8374C11.455 24.0031 11.377 24.2274 11.2211 24.5003C11.4063 24.7246 11.533 24.978 11.7475 25.1243ZM21.2235 14.2639C20.7458 14.7221 20.2583 15.1706 19.8294 15.658C19.5954 15.9213 19.6832 16.321 19.9269 16.5744C20.1901 16.8474 20.5898 16.9254 20.8725 16.6817C21.36 16.2625 21.8279 15.8043 22.2276 15.3071C22.3544 15.1511 22.3349 14.7709 22.2374 14.5564C22.1399 14.3517 21.8572 14.2347 21.6817 14.1079C21.4672 14.1762 21.3112 14.1762 21.2235 14.2639Z" fill="black"/>
</svg>
