<svg width="42" height="52" viewBox="0 0 42 52" fill="none" xmlns="http://www.w3.org/2000/svg">
<path d="M0.815852 44.5508C0.106676 45.4173 0.230002 46.7018 1.14903 47.3413C4.09075 49.3884 7.43038 50.8095 10.9606 51.507C15.1553 52.3357 19.4896 52.1172 23.5796 50.8707C27.6696 49.6242 31.389 47.3883 34.4085 44.361C37.428 41.3337 39.6543 37.6085 40.8902 33.5153C42.1261 29.4221 42.3334 25.0872 41.4938 20.8947C40.6543 16.7022 38.7937 12.7815 36.0769 9.47985C33.3602 6.17818 29.8711 3.59747 25.9187 1.96633C22.5924 0.593553 19.0243 -0.070987 15.4412 0.00604532C14.3218 0.0301109 13.5082 1.03173 13.6194 2.14584C13.7306 3.25995 14.7248 4.06313 15.8445 4.05519C18.7623 4.03451 21.6621 4.59597 24.3719 5.7143C27.7079 7.09107 30.6529 9.26932 32.946 12.0561C35.2391 14.8429 36.8095 18.1522 37.5182 21.6909C38.2268 25.2296 38.0518 28.8884 37.0087 32.3433C35.9655 35.7982 34.0864 38.9425 31.5378 41.4977C28.9892 44.0529 25.8497 45.9401 22.3976 46.9922C18.9454 48.0443 15.287 48.2288 11.7465 47.5293C8.87062 46.9611 6.14461 45.8239 3.72577 44.1919C2.79763 43.5657 1.52503 43.6844 0.815852 44.5508Z" fill="#00B1DB"/>
</svg>
