<svg width="92" height="105" viewBox="0 0 92 105" fill="none" xmlns="http://www.w3.org/2000/svg">
<path opacity="0.4" d="M0.336952 105C30.8231 105 61.2453 105 91.7422 105C91.8168 103.995 91.934 103.002 91.9447 102.009C91.9767 99.274 92.0513 96.5393 91.9447 93.8158C91.8168 90.378 91.1985 87.0294 89.8448 83.8706C88.523 80.7676 86.455 78.3232 83.8435 76.3475C81.104 74.2826 78.0554 72.8204 75.0707 71.2131C71.4998 69.3044 67.9502 67.3623 64.4432 65.3197C62.727 64.3262 61.1387 63.0873 59.4972 61.9488C59.3693 61.8595 59.252 61.6251 59.252 61.4576C59.2307 59.9173 59.2307 58.3658 59.252 56.8255C59.252 56.6357 59.3266 56.4237 59.4226 56.2562C61.0002 53.3876 62.0981 50.3181 62.8656 47.1147C62.9509 46.7575 63.0681 46.5231 63.4199 46.3334C64.7949 45.6302 65.4772 44.3131 65.9462 42.8843C66.8309 40.2278 66.9908 37.5043 66.3512 34.7585C66.138 33.8656 65.7543 33.0173 65.5518 32.1132C65.4452 31.6555 65.5624 31.1309 65.6157 30.651C65.9142 28.2735 66.3299 25.9183 66.5218 23.5297C66.8309 19.69 66.6071 15.8727 65.3173 12.2004C64.0701 8.63982 61.8956 5.84935 58.8363 3.82906C55.0628 1.32881 50.9056 0.0340351 46.418 0.000549535C41.44 -0.032936 36.931 1.46275 33.0616 4.80014C30.1622 7.30039 28.2222 10.4927 27.1669 14.2765C26.6553 16.0959 26.4101 17.9488 26.3461 19.824C26.2502 23.0944 26.1756 26.3648 26.1116 29.6352C26.101 29.9701 26.1329 30.3161 26.2182 30.6286C26.5273 31.7113 26.037 32.6378 25.7492 33.62C24.7792 36.9686 24.8112 40.2948 26.1116 43.5429C26.6553 44.9046 27.4441 46.0878 28.9044 46.5678C29.0217 46.6124 29.1389 46.8245 29.1816 46.9807C30.045 50.6865 31.3561 54.2025 33.3388 57.4171C33.424 57.5622 33.4773 57.7631 33.488 57.9305C33.4987 58.9574 33.5093 59.9731 33.488 61C33.488 61.1674 33.3707 61.3907 33.2322 61.4911C30.0556 63.7793 26.8471 66.0005 23.4148 67.8311C19.7692 69.7732 16.081 71.6596 12.4461 73.6352C9.72797 75.1086 7.16969 76.8498 5.09109 79.2608C3.00183 81.6717 1.72269 84.518 0.987183 87.6545C-0.174698 92.6104 -0.110741 97.6332 0.177071 102.678C0.198387 103.069 0.209038 103.46 0.24102 103.85C0.251678 104.219 0.304977 104.587 0.336952 105ZM65.136 33.4414C65.232 33.6647 65.3066 33.7763 65.3279 33.8991C65.5198 35.2162 65.8183 36.5333 65.8716 37.8504C65.9568 39.7925 65.6477 41.7012 64.8163 43.4759C64.3366 44.5028 63.729 45.3958 62.5991 45.7418C62.4499 45.7864 62.3006 46.032 62.2473 46.2217C61.7143 47.9853 61.2666 49.7935 60.6484 51.5236C59.4012 55.0173 57.6211 58.1984 55.0308 60.8103C53.1548 62.7078 50.9909 64.0919 48.422 64.6499C45.0429 65.3866 41.941 64.5941 39.1162 62.5627C35.9503 60.2857 33.8504 57.1045 32.2408 53.5216C31.1962 51.1999 30.4394 48.7666 29.8744 46.2664C29.7998 45.9204 29.6186 45.8311 29.3308 45.6971C28.8191 45.4739 28.2435 45.2283 27.9131 44.8153C27.4014 44.168 26.9644 43.409 26.6766 42.6276C25.9091 40.5292 25.7599 38.3303 26.037 36.0979C26.0903 35.6738 26.1649 35.2496 26.2609 34.8367C26.3461 34.446 26.4527 34.0553 26.5593 33.6758C26.9857 35.1157 27.3801 36.5221 28.0836 37.9508C28.2329 37.069 28.3714 36.3323 28.4674 35.5957C28.8618 32.5038 29.1816 29.4008 29.6506 26.3202C30.0237 23.8757 30.6632 21.4983 32.049 19.411C33.7012 16.9219 36.0676 15.828 38.9457 15.5155C37.901 17.6363 36.8884 19.6789 35.8864 21.7327C40.8431 18.8083 46.0129 16.7322 51.7157 16.2522C50.1914 17.1786 49.1042 18.5404 47.9743 20.0249C48.1874 19.9914 48.294 19.9802 48.39 19.9579C50.2554 19.6119 52.1208 19.2436 54.0395 19.3105C57.216 19.4333 59.3586 21.0741 60.6484 24.0655C61.6611 26.4095 62.0661 28.9209 62.4285 31.4323C62.7057 33.341 62.8869 35.2608 63.1321 37.1806C63.26 38.1406 63.4199 39.1005 63.5691 40.0604C63.6117 40.0604 63.665 40.0604 63.7077 40.0604C64.1767 37.895 64.6457 35.7184 65.136 33.4414ZM59.0601 62.652C57.1308 65.4424 55.0522 67.9873 52.7604 70.3536C50.895 72.2735 48.859 73.9812 46.7164 75.5327C46.2048 75.9011 45.8424 75.8899 45.3733 75.5104C44.6059 74.8854 43.7957 74.3161 43.0069 73.7134C39.8304 71.2689 36.963 68.4896 34.5859 65.1857C34.021 64.4044 33.5093 63.5896 32.9657 62.7636C33.3388 62.4957 33.6266 62.239 33.9464 62.0604C34.2661 61.8818 34.3408 61.6586 34.3301 61.3014C34.3088 60.5647 34.3194 59.8392 34.3194 58.9909C34.4793 59.1472 34.5646 59.2141 34.6179 59.2923C35.6732 60.7321 36.899 61.9823 38.3061 63.0426C41.5786 65.5094 45.1815 66.4358 49.1255 65.3866C52.3233 64.5383 54.8283 62.5404 56.9389 59.962C57.4186 59.3815 57.8556 58.7565 58.4099 58.031C58.4099 59.203 58.4206 60.241 58.4099 61.2679C58.3992 61.8483 58.3246 62.4399 59.0601 62.652ZM20.6646 95.1999C20.6433 91.9406 23.1163 89.3064 26.2395 89.2618C29.3415 89.2172 31.9211 91.8848 31.9317 95.1441C31.9317 98.3587 29.4054 101.004 26.2928 101.038C23.2442 101.06 20.6859 98.4034 20.6646 95.1999ZM61.7037 64.5383C61.2453 65.1522 60.8296 65.7326 60.3926 66.2907C58.0901 69.271 55.6278 72.0949 52.8883 74.6509C50.8417 76.5596 48.6671 78.2897 46.3434 79.8077C46.1941 79.9082 45.885 79.9082 45.7358 79.8077C44.382 78.8478 43.0283 77.899 41.7278 76.861C38.3487 74.1598 35.3108 71.068 32.5073 67.7194C31.6972 66.7484 30.9191 65.7438 30.0983 64.7169C30.8444 64.2146 31.5266 63.757 32.2195 63.2882C32.3154 63.3998 32.3794 63.4891 32.4434 63.5784C34.5646 66.86 37.0802 69.7844 39.8837 72.4186C41.6532 74.0817 43.5292 75.622 45.6825 76.7271C45.8637 76.8164 46.1835 76.8387 46.3434 76.7382C47.3986 76.0685 48.4859 75.4211 49.4772 74.6398C52.6431 72.1061 55.2334 68.9807 57.7917 65.8443C58.4845 64.996 59.1667 64.1588 59.8809 63.2882C60.4885 63.7123 61.0641 64.103 61.7037 64.5383ZM61.288 95.1441C61.288 94.2511 61.2773 93.3582 61.2986 92.4653C61.3093 92.2755 61.4372 92.0076 61.5864 91.9072C63.0894 90.9696 64.6137 90.0543 66.138 89.1502C66.2446 89.0832 66.4472 89.0832 66.5538 89.139C68.0887 90.0543 69.6237 90.9807 71.148 91.9295C71.2759 92.0076 71.3932 92.242 71.3932 92.4094C71.4145 94.2065 71.4145 96.0147 71.3825 97.8118C71.3825 98.0015 71.2333 98.2582 71.0734 98.3587C69.6344 99.2628 68.1633 100.133 66.7243 101.038C66.4365 101.216 66.2233 101.205 65.9462 101.026C64.4752 100.122 62.9935 99.2517 61.5331 98.3364C61.3946 98.2471 61.2773 97.9904 61.2773 97.8118C61.2773 96.9188 61.288 96.0259 61.288 95.1441Z" fill="url(#paint0_linear_0_341)"/>
<defs>
<linearGradient id="paint0_linear_0_341" x1="46" y1="48.125" x2="46" y2="105" gradientUnits="userSpaceOnUse">
<stop stop-color="#00B1DB"/>
<stop offset="1" stop-color="#00B1DB" stop-opacity="0"/>
</linearGradient>
</defs>
</svg>
